<svg width="55" height="48" viewBox="0 0 55 48" fill="none" xmlns="http://www.w3.org/2000/svg">
<path fill-rule="evenodd" clip-rule="evenodd" d="M38.9814 0.0279992C37.8484 0.228499 36.1369 0.664499 35.2314 0.983124C31.8629 2.16862 28.9414 4.61625 27.6112 7.36712C26.8437 8.9545 26.6871 9.7365 26.7679 11.5784C26.8456 13.353 27.1556 14.722 27.9662 16.8715C28.4432 18.1362 28.5589 18.3207 29.6902 19.6215C34.514 25.1676 36.7356 30.1809 36.7615 35.5784C36.7674 36.8122 36.709 37.3771 36.4836 38.264C36.1715 39.4926 35.5146 41.0445 35.1952 41.3076C35.0205 41.4516 35.0256 41.3814 35.2326 40.7922C36.2732 37.8316 35.539 32.2651 33.5451 27.9983C31.5346 23.6958 27.6866 19.0344 24.6704 17.2472C23.4751 16.5391 22.3771 15.4846 21.9496 14.6341C21.7786 14.2941 21.4014 13.26 21.1114 12.336C20.532 10.4909 20.0534 9.6235 19.222 8.91187C18.7201 8.48225 17.5316 7.82837 17.2526 7.82837C17.1842 7.82837 17.1306 7.22712 17.1271 6.42212C17.1221 5.25687 16.8566 3.16187 16.6934 2.99862C16.6696 2.975 16.3211 3.04137 15.919 3.14612C14.2751 3.57425 13.1577 4.48562 12.2314 6.15375L11.6689 7.16675L9.73137 7.55425C4.88299 8.52412 1.56037 10.1979 0.487494 12.2107C-0.533506 14.1264 0.0921193 16.721 1.96324 18.331C3.40449 19.571 6.24699 20.6415 8.85637 20.927L9.66887 21.0159L9.70362 22.6595L9.73849 24.303L7.14112 24.3581C4.30974 24.4183 4.10324 24.4598 2.98137 25.195C1.87237 25.9219 1.08187 27.3147 0.891745 28.8772L0.817369 29.4885L1.24312 29.4089C1.72199 29.3193 4.46912 29.1207 6.92524 28.9984L8.55662 28.917L9.13837 29.3611C9.78449 29.8544 10.6162 30.0786 11.4542 29.9858C11.9239 29.9336 12.0596 29.8405 12.5581 29.2285C13.363 28.2405 14.0247 27.7555 15.8336 26.8284C17.3801 26.0357 17.4272 25.9993 17.7626 25.3373C18.0592 24.7516 18.106 24.5116 18.1034 23.5872C18.1016 22.998 18.0434 22.2694 17.974 21.9681C17.9045 21.6669 17.8695 21.3986 17.8961 21.3719C18.0129 21.2553 19.0076 22.9427 19.1881 23.5637C19.5631 24.8537 19.1684 26.4187 18.2686 27.2087C18.0449 27.4053 17.1962 27.9053 16.3827 28.32C13.9427 29.564 12.6374 30.9979 12.1145 33.0081C11.4277 35.6484 12.1345 38.4242 14.1965 41.1862C14.8056 42.0023 14.8682 42.1405 14.7476 42.405C14.614 42.6985 14.5837 42.7034 12.8854 42.7034C10.4051 42.7034 9.34987 43.0322 8.32049 44.1259C7.83362 44.6431 7.25399 45.878 7.15337 46.6125L7.07237 47.2034H16.9989C23.0627 47.2034 27.3251 47.1532 27.9525 47.0746C30.2097 46.7915 32.7491 45.7701 34.534 44.4272C35.0201 44.0615 35.8534 43.2264 36.4357 42.5211C37.5336 41.1916 38.026 40.8081 39.7314 39.954C43.1741 38.2299 45.1869 36.0885 46.2876 32.9785C47.1979 30.4069 46.8944 26.4287 45.5357 23.1213C44.8581 21.4718 44.2379 20.3946 42.4164 17.7034C40.5044 14.8785 40.1809 14.2966 40.2871 13.8732C40.4967 13.038 42.307 11.8015 43.5642 11.6346C44.6424 11.4916 45.6062 11.9371 46.178 12.8427C46.492 13.3403 47.1035 15.5883 47.1091 16.2659C47.1189 17.4544 48.3647 22.3289 48.6586 22.328C48.9464 22.327 50.7712 20.5037 51.6381 19.351C52.7705 17.8452 53.3957 16.591 53.8071 14.9997C54.1012 13.8624 54.1214 13.6144 54.0645 11.8284C54.0122 10.1896 53.9447 9.67712 53.6267 8.505C52.4225 4.06512 49.8847 1.67412 44.9966 0.373499C43.9621 0.0982492 43.4792 0.0477493 41.5439 0.0131242C40.3064 -0.00912575 39.1532 -0.00237582 38.9814 0.0279992ZM6.86387 11.1724C5.81512 11.7052 6.19587 13.2034 7.37999 13.2034C8.0175 13.2034 8.35637 12.8599 8.35637 12.2136C8.35637 11.5495 8.26262 11.351 7.84737 11.1362C7.40374 10.9069 7.38487 10.9075 6.86387 11.1724Z" fill="#49BEFF"/>
</svg>
